<svg width="28" height="28" viewBox="0 0 28 28" fill="none" xmlns="http://www.w3.org/2000/svg">
<path d="M20.1391 16.1546C20.0192 16.26 19.93 16.3958 19.8811 16.5478C19.8322 16.6997 19.8253 16.8621 19.8613 17.0176L21.34 23.4204C21.3791 23.5877 21.3681 23.7627 21.3084 23.9237C21.2487 24.0847 21.1429 24.2246 21.0043 24.326C20.8656 24.4273 20.7002 24.4856 20.5287 24.4936C20.3571 24.5016 20.187 24.4589 20.0396 24.3709L14.4505 20.9803C14.3147 20.8977 14.1588 20.854 13.9999 20.854C13.8409 20.854 13.685 20.8977 13.5492 20.9803L7.96018 24.3709C7.81271 24.4589 7.6426 24.5016 7.47105 24.4936C7.2995 24.4856 7.1341 24.4273 6.99545 24.326C6.8568 24.2246 6.75103 24.0847 6.69133 23.9237C6.63163 23.7627 6.62063 23.5877 6.65971 23.4204L8.13846 17.0176C8.17441 16.8621 8.16756 16.6997 8.11864 16.5478C8.06973 16.3958 7.98057 16.26 7.86065 16.1546L2.92674 11.8507C2.79484 11.7386 2.69915 11.5899 2.65179 11.4234C2.60443 11.2569 2.60753 11.0801 2.66069 10.9153C2.71385 10.7506 2.81468 10.6053 2.95043 10.4979C3.08618 10.3904 3.25075 10.3257 3.4233 10.3118L9.92674 9.74964C10.0854 9.73551 10.2372 9.67833 10.3658 9.58427C10.4943 9.49021 10.5948 9.36284 10.6563 9.21589L13.1971 3.16089C13.2649 3.00435 13.3771 2.87106 13.5197 2.77743C13.6623 2.6838 13.8292 2.63391 13.9999 2.63391C14.1705 2.63391 14.3374 2.6838 14.48 2.77743C14.6227 2.87106 14.7348 3.00435 14.8027 3.16089L17.3435 9.21589C17.405 9.36284 17.5054 9.49021 17.634 9.58427C17.7625 9.67833 17.9143 9.73551 18.073 9.74964L24.5764 10.3118C24.749 10.3257 24.9136 10.3904 25.0493 10.4979C25.1851 10.6053 25.2859 10.7506 25.339 10.9153C25.3922 11.0801 25.3953 11.2569 25.3479 11.4234C25.3006 11.5899 25.2049 11.7386 25.073 11.8507L20.1391 16.1546Z" fill="#EDF046"/>
<path d="M26.1626 10.641C26.0566 10.3144 25.8569 10.0262 25.5884 9.81224C25.3198 9.5983 24.9942 9.46811 24.6522 9.43787L18.1564 8.87787L15.6101 2.82287C15.4776 2.50516 15.2539 2.23377 14.9674 2.04287C14.681 1.85198 14.3444 1.75012 14.0001 1.75012C13.6559 1.75012 13.3193 1.85198 13.0328 2.04287C12.7463 2.23377 12.5227 2.50516 12.3901 2.82287L9.85153 8.87787L3.34809 9.44115C3.00469 9.47001 2.67746 9.59961 2.40742 9.8137C2.13738 10.0278 1.93657 10.3168 1.83015 10.6446C1.72374 10.9724 1.71647 11.3243 1.80925 11.6562C1.90202 11.988 2.09073 12.2851 2.35168 12.5102L7.28559 16.8218L5.80684 23.2246C5.72865 23.5597 5.75096 23.9103 5.87099 24.2328C5.99101 24.5552 6.20343 24.8352 6.48168 25.0375C6.75993 25.2399 7.09166 25.3558 7.43541 25.3707C7.77915 25.3855 8.11965 25.2987 8.41434 25.1212L13.9925 21.7305L19.5826 25.1212C19.8773 25.2987 20.2178 25.3855 20.5616 25.3707C20.9053 25.3558 21.237 25.2399 21.5153 25.0375C21.7935 24.8352 22.0059 24.5552 22.126 24.2328C22.246 23.9103 22.2683 23.5597 22.1901 23.2246L20.7125 16.8152L25.6453 12.5102C25.9062 12.2844 26.0945 11.9864 26.1866 11.6538C26.2786 11.3212 26.2703 10.9689 26.1626 10.641ZM24.4979 11.1879L19.5651 15.4929C19.325 15.7017 19.1464 15.972 19.0485 16.2748C18.9506 16.5776 18.9371 16.9013 19.0095 17.2112L20.4915 23.6249L14.9057 20.2343C14.6332 20.0683 14.3203 19.9805 14.0012 19.9805C13.6821 19.9805 13.3692 20.0683 13.0967 20.2343L7.51856 23.6249L8.99075 17.2155C9.0631 16.9057 9.0496 16.5819 8.9517 16.2792C8.85379 15.9764 8.6752 15.7061 8.43512 15.4972L3.50012 11.1944C3.49972 11.1912 3.49972 11.1879 3.50012 11.1846L10.0014 10.6224C10.3188 10.5944 10.6225 10.4803 10.8798 10.2924C11.1372 10.1045 11.3383 9.84984 11.4615 9.556L14.0001 3.50865L16.5376 9.556C16.6609 9.84984 16.862 10.1045 17.1193 10.2924C17.3766 10.4803 17.6804 10.5944 17.9978 10.6224L24.5001 11.1846C24.5001 11.1846 24.5001 11.1912 24.5001 11.1922L24.4979 11.1879Z" fill="#1C1C1C"/>
</svg>
