<svg width="24" height="24" viewBox="0 0 24 24" fill="none" xmlns="http://www.w3.org/2000/svg">
<path d="M10.9337 21.5H3.93372C2.82372 21.5 1.93372 20.6 1.93372 19.5L1.94372 5.5C1.94372 4.4 2.82372 3.5 3.93372 3.5H4.93372V2.5C4.93372 1.95 5.38372 1.5 5.93372 1.5C6.48372 1.5 6.93372 1.95 6.93372 2.5V3.5H14.9337V2.5C14.9337 1.95 15.3837 1.5 15.9337 1.5C16.4837 1.5 16.9337 1.95 16.9337 2.5V3.5H17.9337C19.0337 3.5 19.9337 4.4 19.9337 5.5V11.5H17.9337V9.5H3.93372V19.5H10.9337V21.5ZM21.0637 16.49L21.7737 15.78C22.1637 15.39 22.1637 14.76 21.7737 14.37L21.0637 13.66C20.6737 13.27 20.0437 13.27 19.6537 13.66L18.9437 14.37L21.0637 16.49ZM20.3537 17.2L15.3437 22.21C15.1637 22.39 14.9037 22.5 14.6437 22.5H13.4337C13.1537 22.5 12.9337 22.28 12.9337 22V20.79C12.9337 20.52 13.0437 20.27 13.2237 20.08L18.2337 15.07L20.3537 17.2Z" fill="black"/>
</svg>
