<svg width="18" height="18" viewBox="0 0 18 18" fill="none" xmlns="http://www.w3.org/2000/svg">
<path d="M8.97062 1.8995L6.14219 4.72793L7.5564 6.14214L10.3848 3.31372C11.5516 2.14699 13.4607 2.14699 14.6275 3.31372C15.7942 4.48044 15.7942 6.38963 14.6275 7.55636L11.799 10.3848L13.2133 11.799L16.0417 8.97057C17.9933 7.01895 17.9933 3.85112 16.0417 1.8995C14.0901 -0.0521127 10.9222 -0.0521129 8.97062 1.8995ZM10.3848 11.799L7.5564 14.6274C6.38968 15.7942 4.48049 15.7942 3.31376 14.6274C2.14703 13.4607 2.14703 11.5515 3.31376 10.3848L6.14219 7.55636L4.72797 6.14214L1.89955 8.97057C-0.0520672 10.9222 -0.0520672 14.09 1.89955 16.0416C3.85116 17.9933 7.019 17.9933 8.97062 16.0416L11.799 13.2132L10.3848 11.799ZM5.43508 11.0919L11.0919 5.43504L12.5061 6.84925L6.84929 12.5061L5.43508 11.0919Z" fill="#A4A4A4"/>
</svg>
