<svg width="69" height="68" viewBox="0 0 69 68" fill="none" xmlns="http://www.w3.org/2000/svg">
<rect x="1.07843" y="0.753053" width="66.458" height="66.458" rx="33.229" stroke="#A8C5DA" stroke-width="1.3031"/>
<path d="M66.8848 33.982C66.8848 15.99 52.2994 1.4046 34.3074 1.4046C16.3154 1.4046 1.72998 15.99 1.72998 33.982C1.72998 51.974 16.3154 66.5595 34.3074 66.5595C52.2994 66.5595 66.8848 51.974 66.8848 33.982Z" fill="white"/>
<path fill-rule="evenodd" clip-rule="evenodd" d="M50.2497 34.3523C50.2497 33.1973 50.1461 32.0867 49.9536 31.0205H34.6125V37.3213H43.3789C43.0013 39.3574 41.8536 41.0825 40.1285 42.2375V46.3245H45.3927C48.4728 43.4888 50.2497 39.313 50.2497 34.3523Z" fill="#4285F4"/>
<path fill-rule="evenodd" clip-rule="evenodd" d="M34.6119 50.2707C39.0098 50.2707 42.697 48.8121 45.3921 46.3244L40.1278 42.2374C38.6693 43.2147 36.8035 43.7922 34.6119 43.7922C30.3694 43.7922 26.7785 40.9269 25.4976 37.0768H20.0557V41.2971C22.7359 46.6205 28.2445 50.2707 34.6119 50.2707Z" fill="#34A853"/>
<path fill-rule="evenodd" clip-rule="evenodd" d="M25.4982 37.0768C25.1724 36.0995 24.9873 35.0555 24.9873 33.9819C24.9873 32.9084 25.1724 31.8644 25.4982 30.8871V26.6668H20.0563C18.9531 28.8658 18.3237 31.3535 18.3237 33.9819C18.3237 36.6104 18.9531 39.0981 20.0563 41.2971L25.4982 37.0768Z" fill="#FBBC05"/>
<path fill-rule="evenodd" clip-rule="evenodd" d="M34.6119 24.1718C37.0034 24.1718 39.1505 24.9936 40.8386 26.6077L45.5105 21.9358C42.6896 19.3074 39.0024 17.6933 34.6119 17.6933C28.2445 17.6933 22.7359 21.3435 20.0557 26.6669L25.4976 30.8872C26.7785 27.0371 30.3694 24.1718 34.6119 24.1718Z" fill="#EA4335"/>
</svg>
