<svg width="28" height="28" viewBox="0 0 28 28" fill="none" xmlns="http://www.w3.org/2000/svg">
<path d="M20.1393 16.1546C20.0194 16.26 19.9302 16.3958 19.8813 16.5478C19.8324 16.6997 19.8256 16.8621 19.8615 17.0176L21.3403 23.4204C21.3793 23.5877 21.3683 23.7627 21.3086 23.9237C21.2489 24.0847 21.1432 24.2246 21.0045 24.326C20.8659 24.4273 20.7005 24.4856 20.5289 24.4936C20.3574 24.5016 20.1873 24.4589 20.0398 24.3709L14.4507 20.9803C14.3149 20.8977 14.159 20.854 14.0001 20.854C13.8412 20.854 13.6853 20.8977 13.5495 20.9803L7.96042 24.3709C7.81295 24.4589 7.64285 24.5016 7.4713 24.4936C7.29975 24.4856 7.13434 24.4273 6.99569 24.326C6.85704 24.2246 6.75127 24.0847 6.69157 23.9237C6.63187 23.7627 6.62088 23.5877 6.65995 23.4204L8.1387 17.0176C8.17465 16.8621 8.1678 16.6997 8.11889 16.5478C8.06997 16.3958 7.98082 16.26 7.86089 16.1546L2.92699 11.8507C2.79508 11.7386 2.69939 11.5899 2.65203 11.4234C2.60467 11.2569 2.60777 11.0801 2.66093 10.9153C2.71409 10.7506 2.81492 10.6053 2.95068 10.4979C3.08643 10.3904 3.25099 10.3257 3.42355 10.3118L9.92699 9.74964C10.0857 9.73551 10.2375 9.67833 10.366 9.58427C10.4946 9.49021 10.595 9.36284 10.6565 9.21589L13.1973 3.16089C13.2652 3.00435 13.3773 2.87106 13.52 2.77743C13.6626 2.6838 13.8295 2.63391 14.0001 2.63391C14.1707 2.63391 14.3376 2.6838 14.4803 2.77743C14.6229 2.87106 14.7351 3.00435 14.8029 3.16089L17.3437 9.21589C17.4052 9.36284 17.5056 9.49021 17.6342 9.58427C17.7628 9.67833 17.9146 9.73551 18.0732 9.74964L24.5767 10.3118C24.7492 10.3257 24.9138 10.3904 25.0495 10.4979C25.1853 10.6053 25.2861 10.7506 25.3393 10.9153C25.3925 11.0801 25.3955 11.2569 25.3482 11.4234C25.3008 11.5899 25.2051 11.7386 25.0732 11.8507L20.1393 16.1546Z" fill="#E8E8E8"/>
<path d="M26.1626 10.6411C26.0567 10.3145 25.8569 10.0263 25.5884 9.81236C25.3198 9.59843 24.9942 9.46823 24.6522 9.438L18.1564 8.87799L15.6101 2.82299C15.4776 2.50528 15.2539 2.23389 14.9675 2.043C14.681 1.8521 14.3444 1.75024 14.0001 1.75024C13.6559 1.75024 13.3193 1.8521 13.0328 2.043C12.7463 2.23389 12.5227 2.50528 12.3901 2.82299L9.85153 8.87799L3.34809 9.44128C3.00469 9.47013 2.67746 9.59973 2.40742 9.81383C2.13738 10.0279 1.93657 10.317 1.83015 10.6447C1.72374 10.9725 1.71647 11.3244 1.80925 11.6563C1.90202 11.9882 2.09073 12.2853 2.35168 12.5103L7.28559 16.8219L5.80684 23.2247C5.72865 23.5598 5.75096 23.9105 5.87099 24.2329C5.99101 24.5554 6.20343 24.8353 6.48168 25.0377C6.75993 25.24 7.09166 25.3559 7.43541 25.3708C7.77915 25.3857 8.11965 25.2989 8.41434 25.1213L13.9925 21.7307L19.5826 25.1213C19.8773 25.2989 20.2178 25.3857 20.5616 25.3708C20.9053 25.3559 21.237 25.24 21.5153 25.0377C21.7935 24.8353 22.0059 24.5554 22.126 24.2329C22.246 23.9105 22.2683 23.5598 22.1901 23.2247L20.7125 16.8153L25.6453 12.5103C25.9062 12.2845 26.0945 11.9865 26.1866 11.654C26.2786 11.3214 26.2703 10.969 26.1626 10.6411ZM24.4979 11.188L19.5651 15.493C19.325 15.7018 19.1464 15.9722 19.0485 16.2749C18.9506 16.5777 18.9371 16.9014 19.0095 17.2113L20.4915 23.625L14.9057 20.2344C14.6332 20.0684 14.3203 19.9807 14.0012 19.9807C13.6821 19.9807 13.3692 20.0684 13.0967 20.2344L7.51856 23.625L8.99075 17.2157C9.0631 16.9058 9.0496 16.5821 8.9517 16.2793C8.8538 15.9765 8.6752 15.7062 8.43512 15.4974L3.50012 11.1946C3.49972 11.1913 3.49972 11.188 3.50012 11.1847L10.0014 10.6225C10.3188 10.5945 10.6225 10.4804 10.8798 10.2925C11.1372 10.1046 11.3383 9.84996 11.4615 9.55612L14.0001 3.50878L16.5376 9.55612C16.6609 9.84996 16.862 10.1046 17.1193 10.2925C17.3766 10.4804 17.6804 10.5945 17.9978 10.6225L24.5001 11.1847C24.5001 11.1847 24.5001 11.1913 24.5001 11.1924L24.4979 11.188Z" fill="#1C1C1C"/>
</svg>
