<svg width="25" height="25" viewBox="0 0 25 25" fill="none" xmlns="http://www.w3.org/2000/svg">
<path d="M0 12.3303C0 8.44548 0 6.50307 0.660288 4.98029C1.46815 3.11717 2.95432 1.63099 4.81745 0.82313C6.34023 0.162842 8.28264 0.162842 12.1674 0.162842H12.6747C16.5595 0.162842 18.5019 0.162842 20.0247 0.823129C21.8878 1.63099 23.374 3.11717 24.1818 4.98029C24.8421 6.50307 24.8421 8.44548 24.8421 12.3303C24.8421 16.2151 24.8421 18.1575 24.1818 19.6803C23.374 21.5434 21.8878 23.0296 20.0247 23.8374C18.5019 24.4977 16.5595 24.4977 12.6747 24.4977H12.1674C8.28264 24.4977 6.34023 24.4977 4.81745 23.8374C2.95432 23.0296 1.46815 21.5434 0.660288 19.6803C0 18.1575 0 16.2151 0 12.3303Z" fill="#E3F5FF"/>
<path d="M12.421 9.79535C11.9092 9.79535 11.4089 9.94402 10.9834 10.2226C10.5578 10.5011 10.2262 10.897 10.0303 11.3602C9.83445 11.8234 9.7832 12.333 9.88305 12.8248C9.9829 13.3165 10.2294 13.7682 10.5913 14.1227C10.9532 14.4772 11.4142 14.7186 11.9162 14.8164C12.4182 14.9142 12.9385 14.864 13.4113 14.6722C13.8842 14.4803 14.2883 14.1554 14.5727 13.7385C14.857 13.3217 15.0088 12.8316 15.0088 12.3302C15.0088 11.6579 14.7361 11.0132 14.2508 10.5378C13.7656 10.0624 13.1074 9.79535 12.421 9.79535ZM12.421 13.8512C12.114 13.8512 11.8138 13.762 11.5585 13.5948C11.3031 13.4277 11.1041 13.1902 10.9866 12.9123C10.8691 12.6344 10.8383 12.3285 10.8983 12.0335C10.9582 11.7385 11.106 11.4675 11.3232 11.2548C11.5403 11.0421 11.817 10.8972 12.1181 10.8385C12.4193 10.7798 12.7315 10.81 13.0152 10.9251C13.2989 11.0402 13.5414 11.2351 13.712 11.4853C13.8826 11.7354 13.9737 12.0294 13.9737 12.3302C13.9737 12.7336 13.8101 13.1205 13.5189 13.4057C13.2277 13.6909 12.8328 13.8512 12.421 13.8512ZM17.1896 14.3036C16.9672 14.8186 16.6594 15.294 16.2787 15.7105C16.1865 15.8082 16.0588 15.8665 15.9231 15.8728C15.7874 15.8791 15.6546 15.8329 15.5534 15.7442C15.4522 15.6554 15.3907 15.5312 15.3821 15.3984C15.3735 15.2656 15.4186 15.1349 15.5076 15.0343C16.1871 14.2911 16.5629 13.3283 16.5629 12.3306C16.5629 11.3328 16.1871 10.37 15.5076 9.62678C15.461 9.57739 15.4249 9.51941 15.4014 9.45622C15.3779 9.39302 15.3674 9.32588 15.3707 9.2587C15.3739 9.19152 15.3908 9.12564 15.4203 9.06491C15.4498 9.00418 15.4913 8.9498 15.5425 8.90494C15.5936 8.86008 15.6534 8.82565 15.7182 8.80363C15.7831 8.78162 15.8518 8.77247 15.9203 8.77672C15.9889 8.78097 16.0558 8.79853 16.1173 8.82839C16.1789 8.85824 16.2337 8.89978 16.2787 8.9506C16.9322 9.66692 17.3647 10.5502 17.5259 11.4978C17.6872 12.4454 17.5705 13.4184 17.1896 14.3036ZM8.60416 10.7516C8.2988 11.4597 8.20514 12.2383 8.33411 12.9965C8.46308 13.7547 8.80936 14.4615 9.33261 15.0343C9.42158 15.1349 9.46664 15.2656 9.45806 15.3984C9.44947 15.5312 9.38794 15.6554 9.28673 15.7442C9.18552 15.8329 9.05275 15.8791 8.91706 15.8728C8.78138 15.8665 8.65366 15.8082 8.56147 15.7105C7.71178 14.7814 7.24193 13.5779 7.24193 12.3306C7.24193 11.0832 7.71178 9.87966 8.56147 8.9506C8.653 8.85018 8.78151 8.78949 8.91873 8.78188C9.05594 8.77427 9.19063 8.82038 9.29314 8.91004C9.39566 8.99971 9.45762 9.1256 9.46538 9.26001C9.47314 9.39443 9.42608 9.52636 9.33455 9.62678C9.0292 9.95954 8.78238 10.3397 8.60416 10.7516ZM20.1842 12.3302C20.1873 14.3212 19.3905 16.2334 17.9659 17.6535C17.9188 17.7029 17.862 17.7425 17.799 17.7701C17.736 17.7976 17.668 17.8126 17.5991 17.814C17.5301 17.8155 17.4615 17.8034 17.3974 17.7785C17.3332 17.7537 17.2748 17.7165 17.2255 17.6691C17.1763 17.6218 17.1372 17.5653 17.1105 17.503C17.0839 17.4406 17.0702 17.3737 17.0704 17.3061C17.0705 17.2385 17.0844 17.1716 17.1114 17.1094C17.1383 17.0472 17.1776 16.9908 17.2271 16.9437C18.4606 15.7126 19.1517 14.0565 19.1517 12.3315C19.1517 10.6065 18.4606 8.95037 17.2271 7.71928C17.1307 7.62331 17.0771 7.49375 17.0782 7.3591C17.0793 7.22445 17.1349 7.09573 17.2329 7.00128C17.3309 6.90682 17.4631 6.85435 17.6006 6.85542C17.7381 6.85649 17.8695 6.91101 17.9659 7.00698C19.3905 8.42704 20.1873 10.3393 20.1842 12.3302ZM7.61501 16.9425C7.66267 16.99 7.70031 17.0462 7.72578 17.108C7.75124 17.1698 7.76404 17.2358 7.76344 17.3025C7.76284 17.3691 7.74885 17.4349 7.72227 17.4962C7.6957 17.5576 7.65705 17.6131 7.60854 17.6598C7.56003 17.7065 7.50261 17.7434 7.43955 17.7683C7.37649 17.7933 7.30904 17.8058 7.24104 17.8052C7.17303 17.8046 7.10581 17.7909 7.04322 17.7649C6.98062 17.7389 6.92387 17.701 6.87621 17.6535C5.45179 16.233 4.65369 14.3214 4.65369 12.3302C4.65369 10.3391 5.45179 8.42748 6.87621 7.00698C6.92334 6.95762 6.98008 6.91799 7.04307 6.89041C7.10606 6.86284 7.17405 6.84789 7.24303 6.84643C7.31201 6.84497 7.38059 6.85704 7.44474 6.88193C7.50889 6.90681 7.56732 6.94401 7.61658 6.99133C7.66584 7.03866 7.70494 7.09515 7.73158 7.1575C7.75823 7.21984 7.77188 7.28678 7.77174 7.35436C7.77159 7.42195 7.75765 7.48883 7.73073 7.55106C7.70382 7.61329 7.66447 7.66963 7.61501 7.71675C6.38148 8.94784 5.69042 10.604 5.69042 12.329C5.69042 14.054 6.38148 15.7101 7.61501 16.9412V16.9425Z" fill="#1C1C1C"/>
</svg>
