<svg width="17" height="17" viewBox="0 0 17 17" fill="none" xmlns="http://www.w3.org/2000/svg">
<circle cx="8.49984" cy="8.50033" r="7.08333" fill="black"/>
<path d="M7.08356 9.63372L11.2627 5.45456C11.3926 5.3247 11.5579 5.25977 11.7586 5.25977C11.9593 5.25977 12.1245 5.3247 12.2544 5.45456C12.3843 5.58442 12.4492 5.7497 12.4492 5.95039C12.4492 6.15108 12.3843 6.31636 12.2544 6.44622L7.57939 11.1212C7.43773 11.2629 7.27245 11.3337 7.08356 11.3337C6.89467 11.3337 6.72939 11.2629 6.58773 11.1212L4.74606 9.27956C4.6162 9.1497 4.55127 8.98442 4.55127 8.78372C4.55127 8.58303 4.6162 8.41775 4.74606 8.28789C4.87592 8.15803 5.0412 8.0931 5.24189 8.0931C5.44259 8.0931 5.60787 8.15803 5.73773 8.28789L7.08356 9.63372Z" fill="white"/>
</svg>
